<svg xmlns="http://www.w3.org/2000/svg" xmlns:xlink="http://www.w3.org/1999/xlink" width="500" zoomAndPan="magnify" viewBox="0 0 375 374.999991" height="500" preserveAspectRatio="xMidYMid meet" version="1.0"><defs><g/><clipPath id="608687f773"><path d="M 25.324219 161.257812 L 42.429688 161.257812 L 42.429688 212.496094 L 25.324219 212.496094 Z M 25.324219 161.257812 " clip-rule="nonzero"/></clipPath><clipPath id="0c330ce2f1"><path d="M 33.875 152.707031 L 76.992188 152.707031 L 76.992188 169.808594 L 33.875 169.808594 Z M 33.875 152.707031 " clip-rule="nonzero"/></clipPath><clipPath id="981c1a6dbf"><path d="M 55.042969 169.808594 L 102.132812 169.808594 L 102.132812 230.597656 L 55.042969 230.597656 Z M 55.042969 169.808594 " clip-rule="nonzero"/></clipPath><clipPath id="6ce8370b1d"><path d="M 42.429688 169.535156 L 81.347656 169.535156 L 81.347656 212.253906 L 42.429688 212.253906 Z M 42.429688 169.535156 " clip-rule="nonzero"/></clipPath><clipPath id="e345231114"><path d="M 80.117188 198.019531 C 80.859375 195.828125 81.347656 193.339844 81.347656 190.898438 C 81.347656 188.457031 80.929688 186.109375 80.183594 183.941406 C 80.160156 183.894531 80.160156 183.851562 80.136719 183.804688 C 77.160156 175.671875 69.300781 169.683594 60.417969 169.566406 L 42.429688 169.566406 L 42.429688 212.253906 L 60.402344 212.253906 C 69.347656 212.140625 77.207031 206.242188 80.117188 198.019531 Z M 80.117188 198.019531 " clip-rule="nonzero"/></clipPath><clipPath id="b63ef15bc2"><path d="M 55.042969 182.71875 L 69.957031 182.71875 L 69.957031 199.089844 L 55.042969 199.089844 Z M 55.042969 182.71875 " clip-rule="nonzero"/></clipPath><clipPath id="e0b6a184a7"><path d="M 69.484375 193.632812 C 69.769531 192.792969 69.957031 191.839844 69.957031 190.90625 C 69.957031 189.96875 69.796875 189.070312 69.511719 188.238281 C 69.503906 188.222656 69.503906 188.203125 69.492188 188.1875 C 68.351562 185.070312 65.339844 182.777344 61.9375 182.730469 L 55.042969 182.730469 L 55.042969 199.089844 L 61.929688 199.089844 C 65.359375 199.042969 68.371094 196.785156 69.484375 193.632812 Z M 69.484375 193.632812 " clip-rule="nonzero"/></clipPath><clipPath id="8ec2389036"><path d="M 30.378906 165.988281 L 38.027344 165.988281 L 38.027344 173.632812 L 30.378906 173.632812 Z M 30.378906 165.988281 " clip-rule="nonzero"/></clipPath><clipPath id="dc1ce7e7e8"><path d="M 96.449219 208.675781 L 104.09375 208.675781 L 104.09375 216.320312 L 96.449219 216.320312 Z M 96.449219 208.675781 " clip-rule="nonzero"/></clipPath><clipPath id="4ad69147da"><path d="M 86.632812 219.007812 L 90.878906 219.007812 L 90.878906 223.25 L 86.632812 223.25 Z M 86.632812 219.007812 " clip-rule="nonzero"/></clipPath><clipPath id="92211b6446"><path d="M 83.167969 146.425781 L 100.273438 146.425781 L 100.273438 163.53125 L 83.167969 163.53125 Z M 83.167969 146.425781 " clip-rule="nonzero"/></clipPath><clipPath id="d7a996c137"><path d="M 18.566406 146.886719 L 26.65625 146.886719 L 26.65625 154.976562 L 18.566406 154.976562 Z M 18.566406 146.886719 " clip-rule="nonzero"/></clipPath><clipPath id="add7c39a59"><path d="M 13.230469 164.757812 L 21.320312 164.757812 L 21.320312 172.851562 L 13.230469 172.851562 Z M 13.230469 164.757812 " clip-rule="nonzero"/></clipPath><clipPath id="431c2d8715"><path d="M 11.207031 144.402344 L 15.25 144.402344 L 15.25 148.449219 L 11.207031 148.449219 Z M 11.207031 144.402344 " clip-rule="nonzero"/></clipPath><clipPath id="48e403edb7"><path d="M 12.050781 156.414062 L 17.273438 156.414062 L 17.273438 161.636719 L 12.050781 161.636719 Z M 12.050781 156.414062 " clip-rule="nonzero"/></clipPath><clipPath id="9c9c19699f"><path d="M 106.308594 213.035156 L 114.402344 213.035156 L 114.402344 221.128906 L 106.308594 221.128906 Z M 106.308594 213.035156 " clip-rule="nonzero"/></clipPath><clipPath id="cd434fcd42"><path d="M 116 219.636719 L 121.234375 219.636719 L 121.234375 224.871094 L 116 224.871094 Z M 116 219.636719 " clip-rule="nonzero"/></clipPath><clipPath id="01d79d1979"><path d="M 116.640625 208.675781 L 120.464844 208.675781 L 120.464844 212.496094 L 116.640625 212.496094 Z M 116.640625 208.675781 " clip-rule="nonzero"/></clipPath></defs><rect x="-37.5" width="450" fill="#ffffff" y="-37.499999" height="449.999989" fill-opacity="1"/><rect x="-37.5" width="450" fill="#f0edee" y="-37.499999" height="449.999989" fill-opacity="1"/><g clip-path="url(#608687f773)"><path fill="#ffbe0b" d="M 25.324219 161.257812 L 42.429688 161.257812 L 42.429688 212.503906 L 25.324219 212.503906 Z M 25.324219 161.257812 " fill-opacity="1" fill-rule="nonzero"/></g><g clip-path="url(#0c330ce2f1)"><path fill="#ffbe0b" d="M 76.992188 152.707031 L 76.992188 169.808594 L 33.898438 169.808594 L 33.898438 152.707031 Z M 76.992188 152.707031 " fill-opacity="1" fill-rule="nonzero"/></g><g clip-path="url(#981c1a6dbf)"><path fill="#5e1bb1" d="M 55.042969 169.808594 L 102.132812 169.808594 L 102.132812 230.511719 L 55.042969 230.511719 Z M 55.042969 169.808594 " fill-opacity="1" fill-rule="nonzero"/></g><g clip-path="url(#6ce8370b1d)"><g clip-path="url(#e345231114)"><path fill="#f0edee" d="M 42.429688 212.253906 L 42.429688 169.535156 L 81.347656 169.535156 L 81.347656 212.253906 Z M 42.429688 212.253906 " fill-opacity="1" fill-rule="nonzero"/></g></g><g clip-path="url(#b63ef15bc2)"><g clip-path="url(#e0b6a184a7)"><path fill="#5e1bb1" d="M 55.042969 199.089844 L 55.042969 182.71875 L 69.957031 182.71875 L 69.957031 199.089844 Z M 55.042969 199.089844 " fill-opacity="1" fill-rule="nonzero"/></g></g><g clip-path="url(#8ec2389036)"><path fill="#f0edee" d="M 30.378906 165.988281 L 38.027344 165.988281 L 38.027344 173.632812 L 30.378906 173.632812 Z M 30.378906 165.988281 " fill-opacity="1" fill-rule="nonzero"/></g><g clip-path="url(#dc1ce7e7e8)"><path fill="#f0edee" d="M 96.449219 208.675781 L 104.09375 208.675781 L 104.09375 216.320312 L 96.449219 216.320312 Z M 96.449219 208.675781 " fill-opacity="1" fill-rule="nonzero"/></g><g clip-path="url(#4ad69147da)"><path fill="#f0edee" d="M 86.632812 219.007812 L 90.878906 219.007812 L 90.878906 223.25 L 86.632812 223.25 Z M 86.632812 219.007812 " fill-opacity="1" fill-rule="nonzero"/></g><g clip-path="url(#92211b6446)"><path fill="#5e1bb1" d="M 83.167969 146.425781 L 100.273438 146.425781 L 100.273438 163.53125 L 83.167969 163.53125 Z M 83.167969 146.425781 " fill-opacity="1" fill-rule="nonzero"/></g><g clip-path="url(#d7a996c137)"><path fill="#ffbe0b" d="M 18.566406 146.886719 L 26.65625 146.886719 L 26.65625 154.976562 L 18.566406 154.976562 Z M 18.566406 146.886719 " fill-opacity="1" fill-rule="nonzero"/></g><g clip-path="url(#add7c39a59)"><path fill="#ffbe0b" d="M 13.230469 164.757812 L 21.320312 164.757812 L 21.320312 172.851562 L 13.230469 172.851562 Z M 13.230469 164.757812 " fill-opacity="1" fill-rule="nonzero"/></g><g clip-path="url(#431c2d8715)"><path fill="#ffbe0b" d="M 11.207031 144.402344 L 15.25 144.402344 L 15.25 148.449219 L 11.207031 148.449219 Z M 11.207031 144.402344 " fill-opacity="1" fill-rule="nonzero"/></g><g clip-path="url(#48e403edb7)"><path fill="#5e1bb1" d="M 12.050781 156.414062 L 17.273438 156.414062 L 17.273438 161.636719 L 12.050781 161.636719 Z M 12.050781 156.414062 " fill-opacity="1" fill-rule="nonzero"/></g><g clip-path="url(#9c9c19699f)"><path fill="#5e1bb1" d="M 106.308594 213.035156 L 114.402344 213.035156 L 114.402344 221.128906 L 106.308594 221.128906 Z M 106.308594 213.035156 " fill-opacity="1" fill-rule="nonzero"/></g><g clip-path="url(#cd434fcd42)"><path fill="#ffbe0b" d="M 116 219.636719 L 121.234375 219.636719 L 121.234375 224.871094 L 116 224.871094 Z M 116 219.636719 " fill-opacity="1" fill-rule="nonzero"/></g><g clip-path="url(#01d79d1979)"><path fill="#5e1bb1" d="M 116.640625 208.675781 L 120.464844 208.675781 L 120.464844 212.496094 L 116.640625 212.496094 Z M 116.640625 208.675781 " fill-opacity="1" fill-rule="nonzero"/></g><g fill="#5e1bb1" fill-opacity="1"><g transform="translate(136.587125, 197.547619)"><g><path d="M 0 -4.734375 L 0 -37.875 L 28.40625 -37.875 L 28.40625 -33.140625 L 33.140625 -33.140625 L 33.140625 -18.9375 L 28.40625 -18.9375 L 28.40625 -14.203125 L 9.46875 -14.203125 L 9.46875 -4.734375 Z M 9.46875 -18.9375 L 23.671875 -18.9375 L 23.671875 -33.140625 L 9.46875 -33.140625 Z M 9.46875 -18.9375 "/></g></g></g><g fill="#5e1bb1" fill-opacity="1"><g transform="translate(174.454975, 197.547619)"><g><path d="M 14.203125 -33.140625 L 14.203125 -37.875 L 23.671875 -37.875 L 23.671875 -33.140625 Z M 4.734375 -4.734375 L 4.734375 -9.46875 L 14.203125 -9.46875 L 14.203125 -23.671875 L 9.46875 -23.671875 L 9.46875 -28.40625 L 23.671875 -28.40625 L 23.671875 -9.46875 L 33.140625 -9.46875 L 33.140625 -4.734375 Z M 4.734375 -4.734375 "/></g></g></g><g fill="#5e1bb1" fill-opacity="1"><g transform="translate(212.322825, 197.547619)"><g><path d="M 0 -4.734375 L 0 -9.46875 L 4.734375 -9.46875 L 4.734375 -14.203125 L 9.46875 -14.203125 L 9.46875 -18.9375 L 4.734375 -18.9375 L 4.734375 -23.671875 L 0 -23.671875 L 0 -28.40625 L 9.46875 -28.40625 L 9.46875 -23.671875 L 14.203125 -23.671875 L 14.203125 -18.9375 L 18.9375 -18.9375 L 18.9375 -23.671875 L 23.671875 -23.671875 L 23.671875 -28.40625 L 33.140625 -28.40625 L 33.140625 -23.671875 L 28.40625 -23.671875 L 28.40625 -18.9375 L 23.671875 -18.9375 L 23.671875 -14.203125 L 28.40625 -14.203125 L 28.40625 -9.46875 L 33.140625 -9.46875 L 33.140625 -4.734375 L 23.671875 -4.734375 L 23.671875 -9.46875 L 18.9375 -9.46875 L 18.9375 -14.203125 L 14.203125 -14.203125 L 14.203125 -9.46875 L 9.46875 -9.46875 L 9.46875 -4.734375 Z M 0 -4.734375 "/></g></g></g><g fill="#5e1bb1" fill-opacity="1"><g transform="translate(250.190674, 197.547619)"><g><path d="M 4.734375 -4.734375 L 4.734375 -9.46875 L 0 -9.46875 L 0 -23.671875 L 4.734375 -23.671875 L 4.734375 -28.40625 L 28.40625 -28.40625 L 28.40625 -23.671875 L 33.140625 -23.671875 L 33.140625 -14.203125 L 9.46875 -14.203125 L 9.46875 -9.46875 L 28.40625 -9.46875 L 28.40625 -4.734375 Z M 9.46875 -18.9375 L 23.671875 -18.9375 L 23.671875 -23.671875 L 9.46875 -23.671875 Z M 9.46875 -18.9375 "/></g></g></g><g fill="#5e1bb1" fill-opacity="1"><g transform="translate(288.058524, 197.547619)"><g><path d="M 4.734375 -4.734375 L 4.734375 -9.46875 L 14.203125 -9.46875 L 14.203125 -33.140625 L 9.46875 -33.140625 L 9.46875 -37.875 L 23.671875 -37.875 L 23.671875 -9.46875 L 33.140625 -9.46875 L 33.140625 -4.734375 Z M 4.734375 -4.734375 "/></g></g></g><g fill="#5e1bb1" fill-opacity="1"><g transform="translate(325.926374, 197.547619)"><g><path d="M 4.734375 -4.734375 L 4.734375 -9.46875 L 0 -9.46875 L 0 -14.203125 L 4.734375 -14.203125 L 4.734375 -18.9375 L 23.671875 -18.9375 L 23.671875 -23.671875 L 4.734375 -23.671875 L 4.734375 -28.40625 L 28.40625 -28.40625 L 28.40625 -23.671875 L 33.140625 -23.671875 L 33.140625 -4.734375 Z M 9.46875 -9.46875 L 23.671875 -9.46875 L 23.671875 -14.203125 L 9.46875 -14.203125 Z M 9.46875 -9.46875 "/></g></g></g><g fill="#5e1bb1" fill-opacity="1"><g transform="translate(136.587125, 215.723492)"><g><path d="M 1.140625 0 L 1.140625 -9.046875 L 4.203125 -9.046875 C 5.160156 -9.046875 5.960938 -8.84375 6.609375 -8.4375 C 7.253906 -8.039062 7.738281 -7.5 8.0625 -6.8125 C 8.382812 -6.125 8.546875 -5.363281 8.546875 -4.53125 C 8.546875 -3.613281 8.367188 -2.816406 8.015625 -2.140625 C 7.660156 -1.460938 7.15625 -0.9375 6.5 -0.5625 C 5.851562 -0.1875 5.085938 0 4.203125 0 Z M 7.65625 -4.53125 C 7.65625 -5.257812 7.519531 -5.90625 7.25 -6.46875 C 6.976562 -7.03125 6.585938 -7.46875 6.078125 -7.78125 C 5.566406 -8.101562 4.941406 -8.265625 4.203125 -8.265625 L 2.03125 -8.265625 L 2.03125 -0.796875 L 4.203125 -0.796875 C 4.953125 -0.796875 5.582031 -0.957031 6.09375 -1.28125 C 6.601562 -1.613281 6.988281 -2.0625 7.25 -2.625 C 7.519531 -3.195312 7.65625 -3.832031 7.65625 -4.53125 Z M 7.65625 -4.53125 "/></g></g></g><g fill="#5e1bb1" fill-opacity="1"><g transform="translate(145.698055, 215.723492)"><g><path d="M 3.828125 0.125 C 3.347656 0.125 2.90625 0.0351562 2.5 -0.140625 C 2.09375 -0.328125 1.738281 -0.578125 1.4375 -0.890625 C 1.144531 -1.210938 0.914062 -1.582031 0.75 -2 C 0.582031 -2.414062 0.5 -2.863281 0.5 -3.34375 C 0.5 -3.957031 0.640625 -4.523438 0.921875 -5.046875 C 1.203125 -5.566406 1.59375 -5.976562 2.09375 -6.28125 C 2.601562 -6.59375 3.175781 -6.75 3.8125 -6.75 C 4.46875 -6.75 5.039062 -6.59375 5.53125 -6.28125 C 6.019531 -5.96875 6.40625 -5.550781 6.6875 -5.03125 C 6.96875 -4.519531 7.109375 -3.960938 7.109375 -3.359375 C 7.109375 -3.285156 7.109375 -3.21875 7.109375 -3.15625 C 7.109375 -3.09375 7.101562 -3.046875 7.09375 -3.015625 L 1.40625 -3.015625 C 1.445312 -2.535156 1.578125 -2.109375 1.796875 -1.734375 C 2.023438 -1.367188 2.316406 -1.078125 2.671875 -0.859375 C 3.035156 -0.640625 3.429688 -0.53125 3.859375 -0.53125 C 4.296875 -0.53125 4.707031 -0.640625 5.09375 -0.859375 C 5.476562 -1.085938 5.75 -1.378906 5.90625 -1.734375 L 6.65625 -1.53125 C 6.519531 -1.21875 6.3125 -0.929688 6.03125 -0.671875 C 5.75 -0.421875 5.414062 -0.222656 5.03125 -0.078125 C 4.65625 0.0546875 4.253906 0.125 3.828125 0.125 Z M 1.375 -3.640625 L 6.28125 -3.640625 C 6.25 -4.117188 6.117188 -4.539062 5.890625 -4.90625 C 5.671875 -5.269531 5.378906 -5.554688 5.015625 -5.765625 C 4.648438 -5.972656 4.253906 -6.078125 3.828125 -6.078125 C 3.390625 -6.078125 2.992188 -5.972656 2.640625 -5.765625 C 2.285156 -5.554688 1.992188 -5.265625 1.765625 -4.890625 C 1.535156 -4.523438 1.40625 -4.109375 1.375 -3.640625 Z M 1.375 -3.640625 "/></g></g></g><g fill="#5e1bb1" fill-opacity="1"><g transform="translate(153.177938, 215.723492)"><g><path d="M 3.140625 0.125 C 2.597656 0.125 2.09375 0.0351562 1.625 -0.140625 C 1.15625 -0.316406 0.75 -0.585938 0.40625 -0.953125 L 0.765625 -1.5625 C 1.140625 -1.21875 1.515625 -0.96875 1.890625 -0.8125 C 2.265625 -0.65625 2.664062 -0.578125 3.09375 -0.578125 C 3.613281 -0.578125 4.035156 -0.679688 4.359375 -0.890625 C 4.679688 -1.097656 4.84375 -1.394531 4.84375 -1.78125 C 4.84375 -2.050781 4.765625 -2.253906 4.609375 -2.390625 C 4.453125 -2.523438 4.226562 -2.640625 3.9375 -2.734375 C 3.644531 -2.828125 3.289062 -2.921875 2.875 -3.015625 C 2.414062 -3.148438 2.03125 -3.285156 1.71875 -3.421875 C 1.414062 -3.566406 1.1875 -3.742188 1.03125 -3.953125 C 0.875 -4.171875 0.796875 -4.457031 0.796875 -4.8125 C 0.796875 -5.238281 0.898438 -5.59375 1.109375 -5.875 C 1.328125 -6.164062 1.625 -6.382812 2 -6.53125 C 2.382812 -6.675781 2.8125 -6.75 3.28125 -6.75 C 3.789062 -6.75 4.238281 -6.664062 4.625 -6.5 C 5.019531 -6.34375 5.335938 -6.125 5.578125 -5.84375 L 5.15625 -5.25 C 4.925781 -5.519531 4.644531 -5.722656 4.3125 -5.859375 C 3.988281 -5.992188 3.625 -6.0625 3.21875 -6.0625 C 2.945312 -6.0625 2.6875 -6.023438 2.4375 -5.953125 C 2.195312 -5.878906 2 -5.757812 1.84375 -5.59375 C 1.6875 -5.425781 1.609375 -5.195312 1.609375 -4.90625 C 1.609375 -4.664062 1.664062 -4.476562 1.78125 -4.34375 C 1.90625 -4.21875 2.082031 -4.109375 2.3125 -4.015625 C 2.550781 -3.929688 2.847656 -3.835938 3.203125 -3.734375 C 3.703125 -3.597656 4.140625 -3.457031 4.515625 -3.3125 C 4.890625 -3.175781 5.175781 -3 5.375 -2.78125 C 5.582031 -2.5625 5.6875 -2.25 5.6875 -1.84375 C 5.6875 -1.226562 5.453125 -0.742188 4.984375 -0.390625 C 4.515625 -0.046875 3.898438 0.125 3.140625 0.125 Z M 3.140625 0.125 "/></g></g></g><g fill="#5e1bb1" fill-opacity="1"><g transform="translate(159.332587, 215.723492)"><g><path d="M 0.421875 -1.90625 C 0.421875 -2.320312 0.539062 -2.679688 0.78125 -2.984375 C 1.019531 -3.285156 1.347656 -3.519531 1.765625 -3.6875 C 2.179688 -3.851562 2.664062 -3.9375 3.21875 -3.9375 C 3.539062 -3.9375 3.875 -3.910156 4.21875 -3.859375 C 4.570312 -3.804688 4.882812 -3.734375 5.15625 -3.640625 L 5.15625 -4.1875 C 5.15625 -4.75 4.988281 -5.195312 4.65625 -5.53125 C 4.332031 -5.863281 3.878906 -6.03125 3.296875 -6.03125 C 2.929688 -6.03125 2.578125 -5.960938 2.234375 -5.828125 C 1.890625 -5.703125 1.53125 -5.507812 1.15625 -5.25 L 0.828125 -5.859375 C 1.265625 -6.160156 1.691406 -6.382812 2.109375 -6.53125 C 2.523438 -6.675781 2.945312 -6.75 3.375 -6.75 C 4.195312 -6.75 4.84375 -6.515625 5.3125 -6.046875 C 5.789062 -5.585938 6.03125 -4.945312 6.03125 -4.125 L 6.03125 -1.046875 C 6.03125 -0.921875 6.054688 -0.832031 6.109375 -0.78125 C 6.160156 -0.726562 6.238281 -0.695312 6.34375 -0.6875 L 6.34375 0 C 6.25 0.0078125 6.164062 0.015625 6.09375 0.015625 C 6.03125 0.0234375 5.984375 0.03125 5.953125 0.03125 C 5.742188 0.0195312 5.582031 -0.046875 5.46875 -0.171875 C 5.351562 -0.304688 5.296875 -0.445312 5.296875 -0.59375 L 5.28125 -1.078125 C 4.976562 -0.691406 4.585938 -0.394531 4.109375 -0.1875 C 3.640625 0.0195312 3.160156 0.125 2.671875 0.125 C 2.242188 0.125 1.859375 0.0351562 1.515625 -0.140625 C 1.171875 -0.328125 0.898438 -0.570312 0.703125 -0.875 C 0.515625 -1.1875 0.421875 -1.53125 0.421875 -1.90625 Z M 4.875 -1.40625 C 4.96875 -1.519531 5.035156 -1.628906 5.078125 -1.734375 C 5.128906 -1.847656 5.15625 -1.953125 5.15625 -2.046875 L 5.15625 -3.015625 C 4.875 -3.117188 4.578125 -3.203125 4.265625 -3.265625 C 3.953125 -3.328125 3.640625 -3.359375 3.328125 -3.359375 C 2.703125 -3.359375 2.195312 -3.234375 1.8125 -2.984375 C 1.4375 -2.734375 1.25 -2.394531 1.25 -1.96875 C 1.25 -1.726562 1.3125 -1.5 1.4375 -1.28125 C 1.5625 -1.0625 1.75 -0.878906 2 -0.734375 C 2.25 -0.597656 2.539062 -0.53125 2.875 -0.53125 C 3.289062 -0.53125 3.675781 -0.609375 4.03125 -0.765625 C 4.394531 -0.929688 4.675781 -1.144531 4.875 -1.40625 Z M 4.875 -1.40625 "/></g></g></g><g fill="#5e1bb1" fill-opacity="1"><g transform="translate(166.277272, 215.723492)"><g><path d="M 4.265625 -5.875 C 3.691406 -5.863281 3.1875 -5.703125 2.75 -5.390625 C 2.3125 -5.085938 2.003906 -4.664062 1.828125 -4.125 L 1.828125 0 L 0.953125 0 L 0.953125 -6.640625 L 1.765625 -6.640625 L 1.765625 -5.046875 C 1.992188 -5.515625 2.296875 -5.894531 2.671875 -6.1875 C 3.054688 -6.476562 3.460938 -6.640625 3.890625 -6.671875 C 3.972656 -6.679688 4.046875 -6.6875 4.109375 -6.6875 C 4.171875 -6.6875 4.222656 -6.679688 4.265625 -6.671875 Z M 4.265625 -5.875 "/></g></g></g><g fill="#5e1bb1" fill-opacity="1"><g transform="translate(170.749916, 215.723492)"><g><path d="M 4.265625 -5.875 C 3.691406 -5.863281 3.1875 -5.703125 2.75 -5.390625 C 2.3125 -5.085938 2.003906 -4.664062 1.828125 -4.125 L 1.828125 0 L 0.953125 0 L 0.953125 -6.640625 L 1.765625 -6.640625 L 1.765625 -5.046875 C 1.992188 -5.515625 2.296875 -5.894531 2.671875 -6.1875 C 3.054688 -6.476562 3.460938 -6.640625 3.890625 -6.671875 C 3.972656 -6.679688 4.046875 -6.6875 4.109375 -6.6875 C 4.171875 -6.6875 4.222656 -6.679688 4.265625 -6.671875 Z M 4.265625 -5.875 "/></g></g></g><g fill="#5e1bb1" fill-opacity="1"><g transform="translate(175.22256, 215.723492)"><g><path d="M 3.78125 0.125 C 3.3125 0.125 2.875 0.0351562 2.46875 -0.140625 C 2.0625 -0.328125 1.710938 -0.578125 1.421875 -0.890625 C 1.128906 -1.210938 0.898438 -1.578125 0.734375 -1.984375 C 0.578125 -2.398438 0.5 -2.835938 0.5 -3.296875 C 0.5 -3.773438 0.578125 -4.21875 0.734375 -4.625 C 0.898438 -5.039062 1.128906 -5.40625 1.421875 -5.71875 C 1.722656 -6.039062 2.070312 -6.289062 2.46875 -6.46875 C 2.875 -6.65625 3.316406 -6.75 3.796875 -6.75 C 4.273438 -6.75 4.710938 -6.65625 5.109375 -6.46875 C 5.515625 -6.289062 5.863281 -6.039062 6.15625 -5.71875 C 6.457031 -5.40625 6.6875 -5.039062 6.84375 -4.625 C 7.007812 -4.21875 7.09375 -3.773438 7.09375 -3.296875 C 7.09375 -2.835938 7.007812 -2.398438 6.84375 -1.984375 C 6.6875 -1.578125 6.457031 -1.210938 6.15625 -0.890625 C 5.863281 -0.578125 5.515625 -0.328125 5.109375 -0.140625 C 4.710938 0.0351562 4.269531 0.125 3.78125 0.125 Z M 1.375 -3.296875 C 1.375 -2.796875 1.484375 -2.34375 1.703125 -1.9375 C 1.921875 -1.539062 2.210938 -1.222656 2.578125 -0.984375 C 2.941406 -0.753906 3.34375 -0.640625 3.78125 -0.640625 C 4.226562 -0.640625 4.632812 -0.753906 5 -0.984375 C 5.363281 -1.222656 5.65625 -1.550781 5.875 -1.96875 C 6.09375 -2.382812 6.203125 -2.832031 6.203125 -3.3125 C 6.203125 -3.800781 6.09375 -4.25 5.875 -4.65625 C 5.65625 -5.070312 5.363281 -5.398438 5 -5.640625 C 4.632812 -5.878906 4.226562 -6 3.78125 -6 C 3.34375 -6 2.941406 -5.875 2.578125 -5.625 C 2.222656 -5.375 1.929688 -5.046875 1.703125 -4.640625 C 1.484375 -4.242188 1.375 -3.796875 1.375 -3.296875 Z M 1.375 -3.296875 "/></g></g></g><g fill="#5e1bb1" fill-opacity="1"><g transform="translate(182.804375, 215.723492)"><g><path d="M 1 -9.3125 L 1.859375 -9.3125 L 1.859375 -1.5 C 1.859375 -1.164062 1.914062 -0.945312 2.03125 -0.84375 C 2.15625 -0.75 2.300781 -0.703125 2.46875 -0.703125 C 2.625 -0.703125 2.773438 -0.71875 2.921875 -0.75 C 3.078125 -0.78125 3.210938 -0.816406 3.328125 -0.859375 L 3.484375 -0.15625 C 3.316406 -0.0820312 3.113281 -0.0234375 2.875 0.015625 C 2.644531 0.0546875 2.445312 0.078125 2.28125 0.078125 C 1.894531 0.078125 1.582031 -0.0351562 1.34375 -0.265625 C 1.113281 -0.492188 1 -0.8125 1 -1.21875 Z M 1 -9.3125 "/></g></g></g><g fill="#5e1bb1" fill-opacity="1"><g transform="translate(186.27035, 215.723492)"><g><path d="M 1 -9.3125 L 1.859375 -9.3125 L 1.859375 -1.5 C 1.859375 -1.164062 1.914062 -0.945312 2.03125 -0.84375 C 2.15625 -0.75 2.300781 -0.703125 2.46875 -0.703125 C 2.625 -0.703125 2.773438 -0.71875 2.921875 -0.75 C 3.078125 -0.78125 3.210938 -0.816406 3.328125 -0.859375 L 3.484375 -0.15625 C 3.316406 -0.0820312 3.113281 -0.0234375 2.875 0.015625 C 2.644531 0.0546875 2.445312 0.078125 2.28125 0.078125 C 1.894531 0.078125 1.582031 -0.0351562 1.34375 -0.265625 C 1.113281 -0.492188 1 -0.8125 1 -1.21875 Z M 1 -9.3125 "/></g></g></g><g fill="#5e1bb1" fill-opacity="1"><g transform="translate(189.736325, 215.723492)"><g><path d="M 0.421875 -1.90625 C 0.421875 -2.320312 0.539062 -2.679688 0.78125 -2.984375 C 1.019531 -3.285156 1.347656 -3.519531 1.765625 -3.6875 C 2.179688 -3.851562 2.664062 -3.9375 3.21875 -3.9375 C 3.539062 -3.9375 3.875 -3.910156 4.21875 -3.859375 C 4.570312 -3.804688 4.882812 -3.734375 5.15625 -3.640625 L 5.15625 -4.1875 C 5.15625 -4.75 4.988281 -5.195312 4.65625 -5.53125 C 4.332031 -5.863281 3.878906 -6.03125 3.296875 -6.03125 C 2.929688 -6.03125 2.578125 -5.960938 2.234375 -5.828125 C 1.890625 -5.703125 1.53125 -5.507812 1.15625 -5.25 L 0.828125 -5.859375 C 1.265625 -6.160156 1.691406 -6.382812 2.109375 -6.53125 C 2.523438 -6.675781 2.945312 -6.75 3.375 -6.75 C 4.195312 -6.75 4.84375 -6.515625 5.3125 -6.046875 C 5.789062 -5.585938 6.03125 -4.945312 6.03125 -4.125 L 6.03125 -1.046875 C 6.03125 -0.921875 6.054688 -0.832031 6.109375 -0.78125 C 6.160156 -0.726562 6.238281 -0.695312 6.34375 -0.6875 L 6.34375 0 C 6.25 0.0078125 6.164062 0.015625 6.09375 0.015625 C 6.03125 0.0234375 5.984375 0.03125 5.953125 0.03125 C 5.742188 0.0195312 5.582031 -0.046875 5.46875 -0.171875 C 5.351562 -0.304688 5.296875 -0.445312 5.296875 -0.59375 L 5.28125 -1.078125 C 4.976562 -0.691406 4.585938 -0.394531 4.109375 -0.1875 C 3.640625 0.0195312 3.160156 0.125 2.671875 0.125 C 2.242188 0.125 1.859375 0.0351562 1.515625 -0.140625 C 1.171875 -0.328125 0.898438 -0.570312 0.703125 -0.875 C 0.515625 -1.1875 0.421875 -1.53125 0.421875 -1.90625 Z M 4.875 -1.40625 C 4.96875 -1.519531 5.035156 -1.628906 5.078125 -1.734375 C 5.128906 -1.847656 5.15625 -1.953125 5.15625 -2.046875 L 5.15625 -3.015625 C 4.875 -3.117188 4.578125 -3.203125 4.265625 -3.265625 C 3.953125 -3.328125 3.640625 -3.359375 3.328125 -3.359375 C 2.703125 -3.359375 2.195312 -3.234375 1.8125 -2.984375 C 1.4375 -2.734375 1.25 -2.394531 1.25 -1.96875 C 1.25 -1.726562 1.3125 -1.5 1.4375 -1.28125 C 1.5625 -1.0625 1.75 -0.878906 2 -0.734375 C 2.25 -0.597656 2.539062 -0.53125 2.875 -0.53125 C 3.289062 -0.53125 3.675781 -0.609375 4.03125 -0.765625 C 4.394531 -0.929688 4.675781 -1.144531 4.875 -1.40625 Z M 4.875 -1.40625 "/></g></g></g><g fill="#5e1bb1" fill-opacity="1"><g transform="translate(196.68101, 215.723492)"><g><path d="M 10.84375 0 L 9.96875 0 L 9.96875 -3.703125 C 9.96875 -4.484375 9.84375 -5.054688 9.59375 -5.421875 C 9.351562 -5.785156 8.988281 -5.96875 8.5 -5.96875 C 8 -5.96875 7.550781 -5.785156 7.15625 -5.421875 C 6.757812 -5.066406 6.484375 -4.609375 6.328125 -4.046875 L 6.328125 0 L 5.453125 0 L 5.453125 -3.703125 C 5.453125 -4.492188 5.332031 -5.066406 5.09375 -5.421875 C 4.863281 -5.785156 4.5 -5.96875 4 -5.96875 C 3.507812 -5.96875 3.0625 -5.789062 2.65625 -5.4375 C 2.257812 -5.09375 1.984375 -4.632812 1.828125 -4.0625 L 1.828125 0 L 0.953125 0 L 0.953125 -6.640625 L 1.75 -6.640625 L 1.75 -5.140625 C 2.03125 -5.660156 2.390625 -6.054688 2.828125 -6.328125 C 3.265625 -6.609375 3.75 -6.75 4.28125 -6.75 C 4.832031 -6.75 5.273438 -6.59375 5.609375 -6.28125 C 5.953125 -5.96875 6.164062 -5.554688 6.25 -5.046875 C 6.550781 -5.609375 6.914062 -6.03125 7.34375 -6.3125 C 7.78125 -6.601562 8.269531 -6.75 8.8125 -6.75 C 9.1875 -6.75 9.503906 -6.679688 9.765625 -6.546875 C 10.023438 -6.410156 10.234375 -6.21875 10.390625 -5.96875 C 10.546875 -5.71875 10.660156 -5.414062 10.734375 -5.0625 C 10.804688 -4.707031 10.84375 -4.316406 10.84375 -3.890625 Z M 10.84375 0 "/></g></g></g><g fill="#5e1bb1" fill-opacity="1"><g transform="translate(208.391417, 215.723492)"><g><path d="M 3.78125 0.125 C 3.3125 0.125 2.875 0.0351562 2.46875 -0.140625 C 2.0625 -0.328125 1.710938 -0.578125 1.421875 -0.890625 C 1.128906 -1.210938 0.898438 -1.578125 0.734375 -1.984375 C 0.578125 -2.398438 0.5 -2.835938 0.5 -3.296875 C 0.5 -3.773438 0.578125 -4.21875 0.734375 -4.625 C 0.898438 -5.039062 1.128906 -5.40625 1.421875 -5.71875 C 1.722656 -6.039062 2.070312 -6.289062 2.46875 -6.46875 C 2.875 -6.65625 3.316406 -6.75 3.796875 -6.75 C 4.273438 -6.75 4.710938 -6.65625 5.109375 -6.46875 C 5.515625 -6.289062 5.863281 -6.039062 6.15625 -5.71875 C 6.457031 -5.40625 6.6875 -5.039062 6.84375 -4.625 C 7.007812 -4.21875 7.09375 -3.773438 7.09375 -3.296875 C 7.09375 -2.835938 7.007812 -2.398438 6.84375 -1.984375 C 6.6875 -1.578125 6.457031 -1.210938 6.15625 -0.890625 C 5.863281 -0.578125 5.515625 -0.328125 5.109375 -0.140625 C 4.710938 0.0351562 4.269531 0.125 3.78125 0.125 Z M 1.375 -3.296875 C 1.375 -2.796875 1.484375 -2.34375 1.703125 -1.9375 C 1.921875 -1.539062 2.210938 -1.222656 2.578125 -0.984375 C 2.941406 -0.753906 3.34375 -0.640625 3.78125 -0.640625 C 4.226562 -0.640625 4.632812 -0.753906 5 -0.984375 C 5.363281 -1.222656 5.65625 -1.550781 5.875 -1.96875 C 6.09375 -2.382812 6.203125 -2.832031 6.203125 -3.3125 C 6.203125 -3.800781 6.09375 -4.25 5.875 -4.65625 C 5.65625 -5.070312 5.363281 -5.398438 5 -5.640625 C 4.632812 -5.878906 4.226562 -6 3.78125 -6 C 3.34375 -6 2.941406 -5.875 2.578125 -5.625 C 2.222656 -5.375 1.929688 -5.046875 1.703125 -4.640625 C 1.484375 -4.242188 1.375 -3.796875 1.375 -3.296875 Z M 1.375 -3.296875 "/></g></g></g><g fill="#5e1bb1" fill-opacity="1"><g transform="translate(215.973233, 215.723492)"><g><path d="M 3.140625 0.125 C 2.597656 0.125 2.09375 0.0351562 1.625 -0.140625 C 1.15625 -0.316406 0.75 -0.585938 0.40625 -0.953125 L 0.765625 -1.5625 C 1.140625 -1.21875 1.515625 -0.96875 1.890625 -0.8125 C 2.265625 -0.65625 2.664062 -0.578125 3.09375 -0.578125 C 3.613281 -0.578125 4.035156 -0.679688 4.359375 -0.890625 C 4.679688 -1.097656 4.84375 -1.394531 4.84375 -1.78125 C 4.84375 -2.050781 4.765625 -2.253906 4.609375 -2.390625 C 4.453125 -2.523438 4.226562 -2.640625 3.9375 -2.734375 C 3.644531 -2.828125 3.289062 -2.921875 2.875 -3.015625 C 2.414062 -3.148438 2.03125 -3.285156 1.71875 -3.421875 C 1.414062 -3.566406 1.1875 -3.742188 1.03125 -3.953125 C 0.875 -4.171875 0.796875 -4.457031 0.796875 -4.8125 C 0.796875 -5.238281 0.898438 -5.59375 1.109375 -5.875 C 1.328125 -6.164062 1.625 -6.382812 2 -6.53125 C 2.382812 -6.675781 2.8125 -6.75 3.28125 -6.75 C 3.789062 -6.75 4.238281 -6.664062 4.625 -6.5 C 5.019531 -6.34375 5.335938 -6.125 5.578125 -5.84375 L 5.15625 -5.25 C 4.925781 -5.519531 4.644531 -5.722656 4.3125 -5.859375 C 3.988281 -5.992188 3.625 -6.0625 3.21875 -6.0625 C 2.945312 -6.0625 2.6875 -6.023438 2.4375 -5.953125 C 2.195312 -5.878906 2 -5.757812 1.84375 -5.59375 C 1.6875 -5.425781 1.609375 -5.195312 1.609375 -4.90625 C 1.609375 -4.664062 1.664062 -4.476562 1.78125 -4.34375 C 1.90625 -4.21875 2.082031 -4.109375 2.3125 -4.015625 C 2.550781 -3.929688 2.847656 -3.835938 3.203125 -3.734375 C 3.703125 -3.597656 4.140625 -3.457031 4.515625 -3.3125 C 4.890625 -3.175781 5.175781 -3 5.375 -2.78125 C 5.582031 -2.5625 5.6875 -2.25 5.6875 -1.84375 C 5.6875 -1.226562 5.453125 -0.742188 4.984375 -0.390625 C 4.515625 -0.046875 3.898438 0.125 3.140625 0.125 Z M 3.140625 0.125 "/></g></g></g><g fill="#5e1bb1" fill-opacity="1"><g transform="translate(222.127882, 215.723492)"><g/></g></g><g fill="#5e1bb1" fill-opacity="1"><g transform="translate(225.37724, 215.723492)"><g><path d="M 3.828125 0.125 C 3.347656 0.125 2.90625 0.0351562 2.5 -0.140625 C 2.09375 -0.328125 1.738281 -0.578125 1.4375 -0.890625 C 1.144531 -1.210938 0.914062 -1.582031 0.75 -2 C 0.582031 -2.414062 0.5 -2.863281 0.5 -3.34375 C 0.5 -3.957031 0.640625 -4.523438 0.921875 -5.046875 C 1.203125 -5.566406 1.59375 -5.976562 2.09375 -6.28125 C 2.601562 -6.59375 3.175781 -6.75 3.8125 -6.75 C 4.46875 -6.75 5.039062 -6.59375 5.53125 -6.28125 C 6.019531 -5.96875 6.40625 -5.550781 6.6875 -5.03125 C 6.96875 -4.519531 7.109375 -3.960938 7.109375 -3.359375 C 7.109375 -3.285156 7.109375 -3.21875 7.109375 -3.15625 C 7.109375 -3.09375 7.101562 -3.046875 7.09375 -3.015625 L 1.40625 -3.015625 C 1.445312 -2.535156 1.578125 -2.109375 1.796875 -1.734375 C 2.023438 -1.367188 2.316406 -1.078125 2.671875 -0.859375 C 3.035156 -0.640625 3.429688 -0.53125 3.859375 -0.53125 C 4.296875 -0.53125 4.707031 -0.640625 5.09375 -0.859375 C 5.476562 -1.085938 5.75 -1.378906 5.90625 -1.734375 L 6.65625 -1.53125 C 6.519531 -1.21875 6.3125 -0.929688 6.03125 -0.671875 C 5.75 -0.421875 5.414062 -0.222656 5.03125 -0.078125 C 4.65625 0.0546875 4.253906 0.125 3.828125 0.125 Z M 1.375 -3.640625 L 6.28125 -3.640625 C 6.25 -4.117188 6.117188 -4.539062 5.890625 -4.90625 C 5.671875 -5.269531 5.378906 -5.554688 5.015625 -5.765625 C 4.648438 -5.972656 4.253906 -6.078125 3.828125 -6.078125 C 3.390625 -6.078125 2.992188 -5.972656 2.640625 -5.765625 C 2.285156 -5.554688 1.992188 -5.265625 1.765625 -4.890625 C 1.535156 -4.523438 1.40625 -4.109375 1.375 -3.640625 Z M 1.375 -3.640625 "/></g></g></g><g fill="#5e1bb1" fill-opacity="1"><g transform="translate(232.857123, 215.723492)"><g><path d="M 1 -9.3125 L 1.859375 -9.3125 L 1.859375 -1.5 C 1.859375 -1.164062 1.914062 -0.945312 2.03125 -0.84375 C 2.15625 -0.75 2.300781 -0.703125 2.46875 -0.703125 C 2.625 -0.703125 2.773438 -0.71875 2.921875 -0.75 C 3.078125 -0.78125 3.210938 -0.816406 3.328125 -0.859375 L 3.484375 -0.15625 C 3.316406 -0.0820312 3.113281 -0.0234375 2.875 0.015625 C 2.644531 0.0546875 2.445312 0.078125 2.28125 0.078125 C 1.894531 0.078125 1.582031 -0.0351562 1.34375 -0.265625 C 1.113281 -0.492188 1 -0.8125 1 -1.21875 Z M 1 -9.3125 "/></g></g></g><g fill="#5e1bb1" fill-opacity="1"><g transform="translate(236.323098, 215.723492)"><g/></g></g><g fill="#5e1bb1" fill-opacity="1"><g transform="translate(239.572457, 215.723492)"><g><path d="M 1.28125 0 L 1.28125 -5.953125 L 0.359375 -5.953125 L 0.359375 -6.640625 L 1.28125 -6.640625 L 1.28125 -6.828125 C 1.28125 -7.367188 1.359375 -7.832031 1.515625 -8.21875 C 1.671875 -8.613281 1.894531 -8.914062 2.1875 -9.125 C 2.476562 -9.332031 2.820312 -9.4375 3.21875 -9.4375 C 3.488281 -9.4375 3.742188 -9.394531 3.984375 -9.3125 C 4.234375 -9.238281 4.445312 -9.140625 4.625 -9.015625 L 4.359375 -8.390625 C 4.242188 -8.484375 4.097656 -8.554688 3.921875 -8.609375 C 3.742188 -8.660156 3.566406 -8.6875 3.390625 -8.6875 C 2.992188 -8.6875 2.6875 -8.523438 2.46875 -8.203125 C 2.25 -7.890625 2.140625 -7.4375 2.140625 -6.84375 L 2.140625 -6.640625 L 3.984375 -6.640625 L 3.984375 -5.953125 L 2.140625 -5.953125 L 2.140625 0 Z M 1.28125 0 "/></g></g></g><g fill="#5e1bb1" fill-opacity="1"><g transform="translate(243.777494, 215.723492)"><g><path d="M 0.890625 -2.734375 L 0.890625 -6.640625 L 1.765625 -6.640625 L 1.765625 -2.890625 C 1.765625 -2.140625 1.890625 -1.578125 2.140625 -1.203125 C 2.398438 -0.828125 2.785156 -0.640625 3.296875 -0.640625 C 3.640625 -0.640625 3.96875 -0.710938 4.28125 -0.859375 C 4.601562 -1.003906 4.890625 -1.210938 5.140625 -1.484375 C 5.390625 -1.765625 5.578125 -2.085938 5.703125 -2.453125 L 5.703125 -6.640625 L 6.5625 -6.640625 L 6.5625 -1.046875 C 6.5625 -0.921875 6.585938 -0.832031 6.640625 -0.78125 C 6.691406 -0.726562 6.769531 -0.695312 6.875 -0.6875 L 6.875 0 C 6.769531 0.0078125 6.6875 0.015625 6.625 0.015625 C 6.570312 0.0234375 6.519531 0.03125 6.46875 0.03125 C 6.289062 0.0078125 6.140625 -0.0546875 6.015625 -0.171875 C 5.898438 -0.296875 5.835938 -0.441406 5.828125 -0.609375 L 5.796875 -1.5 C 5.515625 -0.988281 5.125 -0.585938 4.625 -0.296875 C 4.125 -0.015625 3.585938 0.125 3.015625 0.125 C 2.316406 0.125 1.785156 -0.113281 1.421875 -0.59375 C 1.066406 -1.082031 0.890625 -1.796875 0.890625 -2.734375 Z M 0.890625 -2.734375 "/></g></g></g><g fill="#5e1bb1" fill-opacity="1"><g transform="translate(251.346573, 215.723492)"><g><path d="M 4.140625 -0.3125 C 4.078125 -0.289062 3.972656 -0.242188 3.828125 -0.171875 C 3.679688 -0.109375 3.503906 -0.0507812 3.296875 0 C 3.097656 0.0507812 2.878906 0.078125 2.640625 0.078125 C 2.390625 0.078125 2.15625 0.03125 1.9375 -0.0625 C 1.726562 -0.15625 1.554688 -0.296875 1.421875 -0.484375 C 1.296875 -0.679688 1.234375 -0.921875 1.234375 -1.203125 L 1.234375 -5.953125 L 0.3125 -5.953125 L 0.3125 -6.640625 L 1.234375 -6.640625 L 1.234375 -8.890625 L 2.109375 -8.890625 L 2.109375 -6.640625 L 3.640625 -6.640625 L 3.640625 -5.953125 L 2.109375 -5.953125 L 2.109375 -1.4375 C 2.117188 -1.195312 2.203125 -1.019531 2.359375 -0.90625 C 2.515625 -0.789062 2.695312 -0.734375 2.90625 -0.734375 C 3.144531 -0.734375 3.359375 -0.769531 3.546875 -0.84375 C 3.742188 -0.925781 3.867188 -0.984375 3.921875 -1.015625 Z M 4.140625 -0.3125 "/></g></g></g><g fill="#5e1bb1" fill-opacity="1"><g transform="translate(255.615336, 215.723492)"><g><path d="M 0.890625 -2.734375 L 0.890625 -6.640625 L 1.765625 -6.640625 L 1.765625 -2.890625 C 1.765625 -2.140625 1.890625 -1.578125 2.140625 -1.203125 C 2.398438 -0.828125 2.785156 -0.640625 3.296875 -0.640625 C 3.640625 -0.640625 3.96875 -0.710938 4.28125 -0.859375 C 4.601562 -1.003906 4.890625 -1.210938 5.140625 -1.484375 C 5.390625 -1.765625 5.578125 -2.085938 5.703125 -2.453125 L 5.703125 -6.640625 L 6.5625 -6.640625 L 6.5625 -1.046875 C 6.5625 -0.921875 6.585938 -0.832031 6.640625 -0.78125 C 6.691406 -0.726562 6.769531 -0.695312 6.875 -0.6875 L 6.875 0 C 6.769531 0.0078125 6.6875 0.015625 6.625 0.015625 C 6.570312 0.0234375 6.519531 0.03125 6.46875 0.03125 C 6.289062 0.0078125 6.140625 -0.0546875 6.015625 -0.171875 C 5.898438 -0.296875 5.835938 -0.441406 5.828125 -0.609375 L 5.796875 -1.5 C 5.515625 -0.988281 5.125 -0.585938 4.625 -0.296875 C 4.125 -0.015625 3.585938 0.125 3.015625 0.125 C 2.316406 0.125 1.785156 -0.113281 1.421875 -0.59375 C 1.066406 -1.082031 0.890625 -1.796875 0.890625 -2.734375 Z M 0.890625 -2.734375 "/></g></g></g><g fill="#5e1bb1" fill-opacity="1"><g transform="translate(263.184416, 215.723492)"><g><path d="M 4.265625 -5.875 C 3.691406 -5.863281 3.1875 -5.703125 2.75 -5.390625 C 2.3125 -5.085938 2.003906 -4.664062 1.828125 -4.125 L 1.828125 0 L 0.953125 0 L 0.953125 -6.640625 L 1.765625 -6.640625 L 1.765625 -5.046875 C 1.992188 -5.515625 2.296875 -5.894531 2.671875 -6.1875 C 3.054688 -6.476562 3.460938 -6.640625 3.890625 -6.671875 C 3.972656 -6.679688 4.046875 -6.6875 4.109375 -6.6875 C 4.171875 -6.6875 4.222656 -6.679688 4.265625 -6.671875 Z M 4.265625 -5.875 "/></g></g></g><g fill="#5e1bb1" fill-opacity="1"><g transform="translate(267.65706, 215.723492)"><g><path d="M 3.78125 0.125 C 3.3125 0.125 2.875 0.0351562 2.46875 -0.140625 C 2.0625 -0.328125 1.710938 -0.578125 1.421875 -0.890625 C 1.128906 -1.210938 0.898438 -1.578125 0.734375 -1.984375 C 0.578125 -2.398438 0.5 -2.835938 0.5 -3.296875 C 0.5 -3.773438 0.578125 -4.21875 0.734375 -4.625 C 0.898438 -5.039062 1.128906 -5.40625 1.421875 -5.71875 C 1.722656 -6.039062 2.070312 -6.289062 2.46875 -6.46875 C 2.875 -6.65625 3.316406 -6.75 3.796875 -6.75 C 4.273438 -6.75 4.710938 -6.65625 5.109375 -6.46875 C 5.515625 -6.289062 5.863281 -6.039062 6.15625 -5.71875 C 6.457031 -5.40625 6.6875 -5.039062 6.84375 -4.625 C 7.007812 -4.21875 7.09375 -3.773438 7.09375 -3.296875 C 7.09375 -2.835938 7.007812 -2.398438 6.84375 -1.984375 C 6.6875 -1.578125 6.457031 -1.210938 6.15625 -0.890625 C 5.863281 -0.578125 5.515625 -0.328125 5.109375 -0.140625 C 4.710938 0.0351562 4.269531 0.125 3.78125 0.125 Z M 1.375 -3.296875 C 1.375 -2.796875 1.484375 -2.34375 1.703125 -1.9375 C 1.921875 -1.539062 2.210938 -1.222656 2.578125 -0.984375 C 2.941406 -0.753906 3.34375 -0.640625 3.78125 -0.640625 C 4.226562 -0.640625 4.632812 -0.753906 5 -0.984375 C 5.363281 -1.222656 5.65625 -1.550781 5.875 -1.96875 C 6.09375 -2.382812 6.203125 -2.832031 6.203125 -3.3125 C 6.203125 -3.800781 6.09375 -4.25 5.875 -4.65625 C 5.65625 -5.070312 5.363281 -5.398438 5 -5.640625 C 4.632812 -5.878906 4.226562 -6 3.78125 -6 C 3.34375 -6 2.941406 -5.875 2.578125 -5.625 C 2.222656 -5.375 1.929688 -5.046875 1.703125 -4.640625 C 1.484375 -4.242188 1.375 -3.796875 1.375 -3.296875 Z M 1.375 -3.296875 "/></g></g></g><g fill="#5e1bb1" fill-opacity="1"><g transform="translate(275.238875, 215.723492)"><g><path d="M 1.09375 1.03125 L 1.3125 -0.03125 L 1.015625 -0.03125 L 1.015625 -1.25 L 1.859375 -1.25 L 1.859375 -0.03125 L 1.546875 1.03125 Z M 1.09375 1.03125 "/></g></g></g><g fill="#5e1bb1" fill-opacity="1"><g transform="translate(278.105943, 215.723492)"><g/></g></g><g fill="#5e1bb1" fill-opacity="1"><g transform="translate(281.355302, 215.723492)"><g><path d="M 4.34375 0.125 C 3.789062 0.125 3.296875 -0.015625 2.859375 -0.296875 C 2.421875 -0.585938 2.078125 -0.945312 1.828125 -1.375 L 1.828125 2.71875 L 0.953125 2.71875 L 0.953125 -6.640625 L 1.734375 -6.640625 L 1.734375 -5.359375 C 1.992188 -5.773438 2.34375 -6.109375 2.78125 -6.359375 C 3.226562 -6.617188 3.703125 -6.75 4.203125 -6.75 C 4.660156 -6.75 5.082031 -6.65625 5.46875 -6.46875 C 5.851562 -6.28125 6.1875 -6.023438 6.46875 -5.703125 C 6.75 -5.378906 6.96875 -5.007812 7.125 -4.59375 C 7.28125 -4.1875 7.359375 -3.757812 7.359375 -3.3125 C 7.359375 -2.695312 7.234375 -2.125 6.984375 -1.59375 C 6.734375 -1.070312 6.378906 -0.65625 5.921875 -0.34375 C 5.472656 -0.03125 4.945312 0.125 4.34375 0.125 Z M 4.109375 -0.640625 C 4.472656 -0.640625 4.796875 -0.710938 5.078125 -0.859375 C 5.367188 -1.003906 5.617188 -1.203125 5.828125 -1.453125 C 6.035156 -1.710938 6.195312 -2.003906 6.3125 -2.328125 C 6.425781 -2.648438 6.484375 -2.976562 6.484375 -3.3125 C 6.484375 -3.664062 6.421875 -4.003906 6.296875 -4.328125 C 6.171875 -4.648438 5.992188 -4.9375 5.765625 -5.1875 C 5.535156 -5.4375 5.269531 -5.632812 4.96875 -5.78125 C 4.675781 -5.925781 4.351562 -6 4 -6 C 3.78125 -6 3.550781 -5.953125 3.3125 -5.859375 C 3.070312 -5.773438 2.84375 -5.65625 2.625 -5.5 C 2.414062 -5.34375 2.238281 -5.164062 2.09375 -4.96875 C 1.945312 -4.769531 1.859375 -4.5625 1.828125 -4.34375 L 1.828125 -2.3125 C 1.960938 -2 2.144531 -1.710938 2.375 -1.453125 C 2.601562 -1.203125 2.867188 -1.003906 3.171875 -0.859375 C 3.472656 -0.710938 3.785156 -0.640625 4.109375 -0.640625 Z M 4.109375 -0.640625 "/></g></g></g><g fill="#5e1bb1" fill-opacity="1"><g transform="translate(289.217459, 215.723492)"><g><path d="M 0.953125 0 L 0.953125 -6.640625 L 1.828125 -6.640625 L 1.828125 0 Z M 1.6875 -7.90625 L 1.109375 -8.125 L 1.859375 -9.3125 L 2.78125 -9.3125 Z M 1.6875 -7.90625 "/></g></g></g><g fill="#5e1bb1" fill-opacity="1"><g transform="translate(291.99533, 215.723492)"><g><path d="M 1.15625 -6.640625 L 3.109375 -4.046875 L 3.21875 -3.84375 L 3.3125 -4.046875 L 5.25 -6.640625 L 6.234375 -6.640625 L 3.703125 -3.296875 L 6.234375 0 L 5.25 0 L 3.3125 -2.59375 L 3.21875 -2.765625 L 3.109375 -2.59375 L 1.171875 0 L 0.1875 0 L 2.703125 -3.296875 L 0.1875 -6.640625 Z M 1.15625 -6.640625 "/></g></g></g><g fill="#5e1bb1" fill-opacity="1"><g transform="translate(298.417586, 215.723492)"><g><path d="M 3.828125 0.125 C 3.347656 0.125 2.90625 0.0351562 2.5 -0.140625 C 2.09375 -0.328125 1.738281 -0.578125 1.4375 -0.890625 C 1.144531 -1.210938 0.914062 -1.582031 0.75 -2 C 0.582031 -2.414062 0.5 -2.863281 0.5 -3.34375 C 0.5 -3.957031 0.640625 -4.523438 0.921875 -5.046875 C 1.203125 -5.566406 1.59375 -5.976562 2.09375 -6.28125 C 2.601562 -6.59375 3.175781 -6.75 3.8125 -6.75 C 4.46875 -6.75 5.039062 -6.59375 5.53125 -6.28125 C 6.019531 -5.96875 6.40625 -5.550781 6.6875 -5.03125 C 6.96875 -4.519531 7.109375 -3.960938 7.109375 -3.359375 C 7.109375 -3.285156 7.109375 -3.21875 7.109375 -3.15625 C 7.109375 -3.09375 7.101562 -3.046875 7.09375 -3.015625 L 1.40625 -3.015625 C 1.445312 -2.535156 1.578125 -2.109375 1.796875 -1.734375 C 2.023438 -1.367188 2.316406 -1.078125 2.671875 -0.859375 C 3.035156 -0.640625 3.429688 -0.53125 3.859375 -0.53125 C 4.296875 -0.53125 4.707031 -0.640625 5.09375 -0.859375 C 5.476562 -1.085938 5.75 -1.378906 5.90625 -1.734375 L 6.65625 -1.53125 C 6.519531 -1.21875 6.3125 -0.929688 6.03125 -0.671875 C 5.75 -0.421875 5.414062 -0.222656 5.03125 -0.078125 C 4.65625 0.0546875 4.253906 0.125 3.828125 0.125 Z M 1.375 -3.640625 L 6.28125 -3.640625 C 6.25 -4.117188 6.117188 -4.539062 5.890625 -4.90625 C 5.671875 -5.269531 5.378906 -5.554688 5.015625 -5.765625 C 4.648438 -5.972656 4.253906 -6.078125 3.828125 -6.078125 C 3.390625 -6.078125 2.992188 -5.972656 2.640625 -5.765625 C 2.285156 -5.554688 1.992188 -5.265625 1.765625 -4.890625 C 1.535156 -4.523438 1.40625 -4.109375 1.375 -3.640625 Z M 1.375 -3.640625 "/></g></g></g><g fill="#5e1bb1" fill-opacity="1"><g transform="translate(305.897468, 215.723492)"><g><path d="M 1 -9.3125 L 1.859375 -9.3125 L 1.859375 -1.5 C 1.859375 -1.164062 1.914062 -0.945312 2.03125 -0.84375 C 2.15625 -0.75 2.300781 -0.703125 2.46875 -0.703125 C 2.625 -0.703125 2.773438 -0.71875 2.921875 -0.75 C 3.078125 -0.78125 3.210938 -0.816406 3.328125 -0.859375 L 3.484375 -0.15625 C 3.316406 -0.0820312 3.113281 -0.0234375 2.875 0.015625 C 2.644531 0.0546875 2.445312 0.078125 2.28125 0.078125 C 1.894531 0.078125 1.582031 -0.0351562 1.34375 -0.265625 C 1.113281 -0.492188 1 -0.8125 1 -1.21875 Z M 1 -9.3125 "/></g></g></g><g fill="#5e1bb1" fill-opacity="1"><g transform="translate(309.363443, 215.723492)"><g/></g></g><g fill="#5e1bb1" fill-opacity="1"><g transform="translate(312.612802, 215.723492)"><g><path d="M 4.34375 0.125 C 3.789062 0.125 3.296875 -0.015625 2.859375 -0.296875 C 2.421875 -0.585938 2.078125 -0.945312 1.828125 -1.375 L 1.828125 2.71875 L 0.953125 2.71875 L 0.953125 -6.640625 L 1.734375 -6.640625 L 1.734375 -5.359375 C 1.992188 -5.773438 2.34375 -6.109375 2.78125 -6.359375 C 3.226562 -6.617188 3.703125 -6.75 4.203125 -6.75 C 4.660156 -6.75 5.082031 -6.65625 5.46875 -6.46875 C 5.851562 -6.28125 6.1875 -6.023438 6.46875 -5.703125 C 6.75 -5.378906 6.96875 -5.007812 7.125 -4.59375 C 7.28125 -4.1875 7.359375 -3.757812 7.359375 -3.3125 C 7.359375 -2.695312 7.234375 -2.125 6.984375 -1.59375 C 6.734375 -1.070312 6.378906 -0.65625 5.921875 -0.34375 C 5.472656 -0.03125 4.945312 0.125 4.34375 0.125 Z M 4.109375 -0.640625 C 4.472656 -0.640625 4.796875 -0.710938 5.078125 -0.859375 C 5.367188 -1.003906 5.617188 -1.203125 5.828125 -1.453125 C 6.035156 -1.710938 6.195312 -2.003906 6.3125 -2.328125 C 6.425781 -2.648438 6.484375 -2.976562 6.484375 -3.3125 C 6.484375 -3.664062 6.421875 -4.003906 6.296875 -4.328125 C 6.171875 -4.648438 5.992188 -4.9375 5.765625 -5.1875 C 5.535156 -5.4375 5.269531 -5.632812 4.96875 -5.78125 C 4.675781 -5.925781 4.351562 -6 4 -6 C 3.78125 -6 3.550781 -5.953125 3.3125 -5.859375 C 3.070312 -5.773438 2.84375 -5.65625 2.625 -5.5 C 2.414062 -5.34375 2.238281 -5.164062 2.09375 -4.96875 C 1.945312 -4.769531 1.859375 -4.5625 1.828125 -4.34375 L 1.828125 -2.3125 C 1.960938 -2 2.144531 -1.710938 2.375 -1.453125 C 2.601562 -1.203125 2.867188 -1.003906 3.171875 -0.859375 C 3.472656 -0.710938 3.785156 -0.640625 4.109375 -0.640625 Z M 4.109375 -0.640625 "/></g></g></g><g fill="#5e1bb1" fill-opacity="1"><g transform="translate(320.474959, 215.723492)"><g><path d="M 3.78125 0.125 C 3.3125 0.125 2.875 0.0351562 2.46875 -0.140625 C 2.0625 -0.328125 1.710938 -0.578125 1.421875 -0.890625 C 1.128906 -1.210938 0.898438 -1.578125 0.734375 -1.984375 C 0.578125 -2.398438 0.5 -2.835938 0.5 -3.296875 C 0.5 -3.773438 0.578125 -4.21875 0.734375 -4.625 C 0.898438 -5.039062 1.128906 -5.40625 1.421875 -5.71875 C 1.722656 -6.039062 2.070312 -6.289062 2.46875 -6.46875 C 2.875 -6.65625 3.316406 -6.75 3.796875 -6.75 C 4.273438 -6.75 4.710938 -6.65625 5.109375 -6.46875 C 5.515625 -6.289062 5.863281 -6.039062 6.15625 -5.71875 C 6.457031 -5.40625 6.6875 -5.039062 6.84375 -4.625 C 7.007812 -4.21875 7.09375 -3.773438 7.09375 -3.296875 C 7.09375 -2.835938 7.007812 -2.398438 6.84375 -1.984375 C 6.6875 -1.578125 6.457031 -1.210938 6.15625 -0.890625 C 5.863281 -0.578125 5.515625 -0.328125 5.109375 -0.140625 C 4.710938 0.0351562 4.269531 0.125 3.78125 0.125 Z M 1.375 -3.296875 C 1.375 -2.796875 1.484375 -2.34375 1.703125 -1.9375 C 1.921875 -1.539062 2.210938 -1.222656 2.578125 -0.984375 C 2.941406 -0.753906 3.34375 -0.640625 3.78125 -0.640625 C 4.226562 -0.640625 4.632812 -0.753906 5 -0.984375 C 5.363281 -1.222656 5.65625 -1.550781 5.875 -1.96875 C 6.09375 -2.382812 6.203125 -2.832031 6.203125 -3.3125 C 6.203125 -3.800781 6.09375 -4.25 5.875 -4.65625 C 5.65625 -5.070312 5.363281 -5.398438 5 -5.640625 C 4.632812 -5.878906 4.226562 -6 3.78125 -6 C 3.34375 -6 2.941406 -5.875 2.578125 -5.625 C 2.222656 -5.375 1.929688 -5.046875 1.703125 -4.640625 C 1.484375 -4.242188 1.375 -3.796875 1.375 -3.296875 Z M 1.375 -3.296875 "/></g></g></g><g fill="#5e1bb1" fill-opacity="1"><g transform="translate(328.056775, 215.723492)"><g><path d="M 4.265625 -5.875 C 3.691406 -5.863281 3.1875 -5.703125 2.75 -5.390625 C 2.3125 -5.085938 2.003906 -4.664062 1.828125 -4.125 L 1.828125 0 L 0.953125 0 L 0.953125 -6.640625 L 1.765625 -6.640625 L 1.765625 -5.046875 C 1.992188 -5.515625 2.296875 -5.894531 2.671875 -6.1875 C 3.054688 -6.476562 3.460938 -6.640625 3.890625 -6.671875 C 3.972656 -6.679688 4.046875 -6.6875 4.109375 -6.6875 C 4.171875 -6.6875 4.222656 -6.679688 4.265625 -6.671875 Z M 4.265625 -5.875 "/></g></g></g><g fill="#5e1bb1" fill-opacity="1"><g transform="translate(332.529418, 215.723492)"><g/></g></g><g fill="#5e1bb1" fill-opacity="1"><g transform="translate(335.778777, 215.723492)"><g><path d="M 4.34375 0.125 C 3.789062 0.125 3.296875 -0.015625 2.859375 -0.296875 C 2.421875 -0.585938 2.078125 -0.945312 1.828125 -1.375 L 1.828125 2.71875 L 0.953125 2.71875 L 0.953125 -6.640625 L 1.734375 -6.640625 L 1.734375 -5.359375 C 1.992188 -5.773438 2.34375 -6.109375 2.78125 -6.359375 C 3.226562 -6.617188 3.703125 -6.75 4.203125 -6.75 C 4.660156 -6.75 5.082031 -6.65625 5.46875 -6.46875 C 5.851562 -6.28125 6.1875 -6.023438 6.46875 -5.703125 C 6.75 -5.378906 6.96875 -5.007812 7.125 -4.59375 C 7.28125 -4.1875 7.359375 -3.757812 7.359375 -3.3125 C 7.359375 -2.695312 7.234375 -2.125 6.984375 -1.59375 C 6.734375 -1.070312 6.378906 -0.65625 5.921875 -0.34375 C 5.472656 -0.03125 4.945312 0.125 4.34375 0.125 Z M 4.109375 -0.640625 C 4.472656 -0.640625 4.796875 -0.710938 5.078125 -0.859375 C 5.367188 -1.003906 5.617188 -1.203125 5.828125 -1.453125 C 6.035156 -1.710938 6.195312 -2.003906 6.3125 -2.328125 C 6.425781 -2.648438 6.484375 -2.976562 6.484375 -3.3125 C 6.484375 -3.664062 6.421875 -4.003906 6.296875 -4.328125 C 6.171875 -4.648438 5.992188 -4.9375 5.765625 -5.1875 C 5.535156 -5.4375 5.269531 -5.632812 4.96875 -5.78125 C 4.675781 -5.925781 4.351562 -6 4 -6 C 3.78125 -6 3.550781 -5.953125 3.3125 -5.859375 C 3.070312 -5.773438 2.84375 -5.65625 2.625 -5.5 C 2.414062 -5.34375 2.238281 -5.164062 2.09375 -4.96875 C 1.945312 -4.769531 1.859375 -4.5625 1.828125 -4.34375 L 1.828125 -2.3125 C 1.960938 -2 2.144531 -1.710938 2.375 -1.453125 C 2.601562 -1.203125 2.867188 -1.003906 3.171875 -0.859375 C 3.472656 -0.710938 3.785156 -0.640625 4.109375 -0.640625 Z M 4.109375 -0.640625 "/></g></g></g><g fill="#5e1bb1" fill-opacity="1"><g transform="translate(343.640934, 215.723492)"><g><path d="M 0.953125 0 L 0.953125 -6.640625 L 1.828125 -6.640625 L 1.828125 0 Z M 1.6875 -7.90625 L 1.109375 -8.125 L 1.859375 -9.3125 L 2.78125 -9.3125 Z M 1.6875 -7.90625 "/></g></g></g><g fill="#5e1bb1" fill-opacity="1"><g transform="translate(346.418805, 215.723492)"><g><path d="M 1.15625 -6.640625 L 3.109375 -4.046875 L 3.21875 -3.84375 L 3.3125 -4.046875 L 5.25 -6.640625 L 6.234375 -6.640625 L 3.703125 -3.296875 L 6.234375 0 L 5.25 0 L 3.3125 -2.59375 L 3.21875 -2.765625 L 3.109375 -2.59375 L 1.171875 0 L 0.1875 0 L 2.703125 -3.296875 L 0.1875 -6.640625 Z M 1.15625 -6.640625 "/></g></g></g><g fill="#5e1bb1" fill-opacity="1"><g transform="translate(352.841061, 215.723492)"><g><path d="M 3.828125 0.125 C 3.347656 0.125 2.90625 0.0351562 2.5 -0.140625 C 2.09375 -0.328125 1.738281 -0.578125 1.4375 -0.890625 C 1.144531 -1.210938 0.914062 -1.582031 0.75 -2 C 0.582031 -2.414062 0.5 -2.863281 0.5 -3.34375 C 0.5 -3.957031 0.640625 -4.523438 0.921875 -5.046875 C 1.203125 -5.566406 1.59375 -5.976562 2.09375 -6.28125 C 2.601562 -6.59375 3.175781 -6.75 3.8125 -6.75 C 4.46875 -6.75 5.039062 -6.59375 5.53125 -6.28125 C 6.019531 -5.96875 6.40625 -5.550781 6.6875 -5.03125 C 6.96875 -4.519531 7.109375 -3.960938 7.109375 -3.359375 C 7.109375 -3.285156 7.109375 -3.21875 7.109375 -3.15625 C 7.109375 -3.09375 7.101562 -3.046875 7.09375 -3.015625 L 1.40625 -3.015625 C 1.445312 -2.535156 1.578125 -2.109375 1.796875 -1.734375 C 2.023438 -1.367188 2.316406 -1.078125 2.671875 -0.859375 C 3.035156 -0.640625 3.429688 -0.53125 3.859375 -0.53125 C 4.296875 -0.53125 4.707031 -0.640625 5.09375 -0.859375 C 5.476562 -1.085938 5.75 -1.378906 5.90625 -1.734375 L 6.65625 -1.53125 C 6.519531 -1.21875 6.3125 -0.929688 6.03125 -0.671875 C 5.75 -0.421875 5.414062 -0.222656 5.03125 -0.078125 C 4.65625 0.0546875 4.253906 0.125 3.828125 0.125 Z M 1.375 -3.640625 L 6.28125 -3.640625 C 6.25 -4.117188 6.117188 -4.539062 5.890625 -4.90625 C 5.671875 -5.269531 5.378906 -5.554688 5.015625 -5.765625 C 4.648438 -5.972656 4.253906 -6.078125 3.828125 -6.078125 C 3.390625 -6.078125 2.992188 -5.972656 2.640625 -5.765625 C 2.285156 -5.554688 1.992188 -5.265625 1.765625 -4.890625 C 1.535156 -4.523438 1.40625 -4.109375 1.375 -3.640625 Z M 1.375 -3.640625 "/></g></g></g><g fill="#5e1bb1" fill-opacity="1"><g transform="translate(360.320944, 215.723492)"><g><path d="M 1 -9.3125 L 1.859375 -9.3125 L 1.859375 -1.5 C 1.859375 -1.164062 1.914062 -0.945312 2.03125 -0.84375 C 2.15625 -0.75 2.300781 -0.703125 2.46875 -0.703125 C 2.625 -0.703125 2.773438 -0.71875 2.921875 -0.75 C 3.078125 -0.78125 3.210938 -0.816406 3.328125 -0.859375 L 3.484375 -0.15625 C 3.316406 -0.0820312 3.113281 -0.0234375 2.875 0.015625 C 2.644531 0.0546875 2.445312 0.078125 2.28125 0.078125 C 1.894531 0.078125 1.582031 -0.0351562 1.34375 -0.265625 C 1.113281 -0.492188 1 -0.8125 1 -1.21875 Z M 1 -9.3125 "/></g></g></g></svg>