<svg xmlns="http://www.w3.org/2000/svg" xmlns:xlink="http://www.w3.org/1999/xlink" width="500" zoomAndPan="magnify" viewBox="0 0 375 374.999991" height="500" preserveAspectRatio="xMidYMid meet" version="1.0"><defs><clipPath id="67c22fa0bc"><path d="M 58.894531 105.347656 L 112.683594 105.347656 L 112.683594 266.488281 L 58.894531 266.488281 Z M 58.894531 105.347656 " clip-rule="nonzero"/></clipPath><clipPath id="7b223fc2cf"><path d="M 85.773438 78.449219 L 221.375 78.449219 L 221.375 132.242188 L 85.773438 132.242188 Z M 85.773438 78.449219 " clip-rule="nonzero"/></clipPath><clipPath id="650901a15d"><path d="M 152.351562 131.492188 L 300.445312 131.492188 L 300.445312 322.664062 L 152.351562 322.664062 Z M 152.351562 131.492188 " clip-rule="nonzero"/></clipPath><clipPath id="84c54bacf9"><path d="M 112.683594 131.382812 L 235.078125 131.382812 L 235.078125 265.730469 L 112.683594 265.730469 Z M 112.683594 131.382812 " clip-rule="nonzero"/></clipPath><clipPath id="412eb9a926"><path d="M 231.203125 220.957031 C 233.542969 214.074219 235.078125 206.25 235.078125 198.570312 C 235.078125 190.890625 233.761719 183.5 231.421875 176.691406 C 231.347656 176.546875 231.347656 176.402344 231.273438 176.257812 C 221.914062 150.683594 197.191406 131.847656 169.25 131.484375 L 112.683594 131.484375 L 112.683594 265.730469 L 169.210938 265.730469 C 197.335938 265.367188 222.058594 246.820312 231.203125 220.957031 Z M 231.203125 220.957031 " clip-rule="nonzero"/></clipPath><clipPath id="811cd85f77"><path d="M 152.347656 172.851562 L 199.25 172.851562 L 199.25 224.332031 L 152.347656 224.332031 Z M 152.347656 172.851562 " clip-rule="nonzero"/></clipPath><clipPath id="a65048bdc7"><path d="M 197.761719 207.175781 C 198.660156 204.539062 199.25 201.539062 199.25 198.597656 C 199.25 195.652344 198.742188 192.820312 197.847656 190.210938 C 197.820312 190.15625 197.820312 190.101562 197.789062 190.046875 C 194.203125 180.246094 184.730469 173.027344 174.023438 172.890625 L 152.347656 172.890625 L 152.347656 224.332031 L 174.007812 224.332031 C 184.785156 224.191406 194.257812 217.085938 197.761719 207.175781 Z M 197.761719 207.175781 " clip-rule="nonzero"/></clipPath><clipPath id="3f73825dd4"><path d="M 74.789062 120.21875 L 98.832031 120.21875 L 98.832031 144.265625 L 74.789062 144.265625 Z M 74.789062 120.21875 " clip-rule="nonzero"/></clipPath><clipPath id="ee2a5b8461"><path d="M 282.570312 254.464844 L 306.617188 254.464844 L 306.617188 278.511719 L 282.570312 278.511719 Z M 282.570312 254.464844 " clip-rule="nonzero"/></clipPath><clipPath id="d257f1c766"><path d="M 251.699219 286.960938 L 265.050781 286.960938 L 265.050781 300.308594 L 251.699219 300.308594 Z M 251.699219 286.960938 " clip-rule="nonzero"/></clipPath><clipPath id="77579a6ee2"><path d="M 240.804688 58.699219 L 294.59375 58.699219 L 294.59375 112.488281 L 240.804688 112.488281 Z M 240.804688 58.699219 " clip-rule="nonzero"/></clipPath><clipPath id="96633a06af"><path d="M 37.632812 60.144531 L 63.082031 60.144531 L 63.082031 85.59375 L 37.632812 85.59375 Z M 37.632812 60.144531 " clip-rule="nonzero"/></clipPath><clipPath id="1f0c531705"><path d="M 20.847656 116.355469 L 46.300781 116.355469 L 46.300781 141.804688 L 20.847656 141.804688 Z M 20.847656 116.355469 " clip-rule="nonzero"/></clipPath><clipPath id="fd349f25dc"><path d="M 14.484375 52.335938 L 27.210938 52.335938 L 27.210938 65.0625 L 14.484375 65.0625 Z M 14.484375 52.335938 " clip-rule="nonzero"/></clipPath><clipPath id="b041e75f24"><path d="M 17.144531 90.105469 L 33.574219 90.105469 L 33.574219 106.535156 L 17.144531 106.535156 Z M 17.144531 90.105469 " clip-rule="nonzero"/></clipPath><clipPath id="389f18f8cd"><path d="M 313.582031 268.183594 L 339.03125 268.183594 L 339.03125 293.636719 L 313.582031 293.636719 Z M 313.582031 268.183594 " clip-rule="nonzero"/></clipPath><clipPath id="098beebabc"><path d="M 344.050781 288.9375 L 360.515625 288.9375 L 360.515625 305.402344 L 344.050781 305.402344 Z M 344.050781 288.9375 " clip-rule="nonzero"/></clipPath><clipPath id="6c26811e37"><path d="M 346.070312 254.464844 L 358.09375 254.464844 L 358.09375 266.488281 L 346.070312 266.488281 Z M 346.070312 254.464844 " clip-rule="nonzero"/></clipPath></defs><rect x="-37.5" width="450" fill="#ffffff" y="-37.499999" height="449.999989" fill-opacity="1"/><rect x="-37.5" width="450" fill="#272635" y="-37.499999" height="449.999989" fill-opacity="1"/><g clip-path="url(#67c22fa0bc)"><path fill="#f0edee" d="M 58.894531 105.347656 L 112.683594 105.347656 L 112.683594 266.507812 L 58.894531 266.507812 Z M 58.894531 105.347656 " fill-opacity="1" fill-rule="nonzero"/></g><g clip-path="url(#7b223fc2cf)"><path fill="#f0edee" d="M 221.375 78.449219 L 221.375 132.242188 L 85.847656 132.242188 L 85.847656 78.449219 Z M 221.375 78.449219 " fill-opacity="1" fill-rule="nonzero"/></g><g clip-path="url(#650901a15d)"><path fill="#f0edee" d="M 152.351562 131.492188 L 300.445312 131.492188 L 300.445312 322.394531 L 152.351562 322.394531 Z M 152.351562 131.492188 " fill-opacity="1" fill-rule="nonzero"/></g><g clip-path="url(#84c54bacf9)"><g clip-path="url(#412eb9a926)"><path fill="#272635" d="M 112.683594 265.730469 L 112.683594 131.382812 L 235.078125 131.382812 L 235.078125 265.730469 Z M 112.683594 265.730469 " fill-opacity="1" fill-rule="nonzero"/></g></g><g clip-path="url(#811cd85f77)"><g clip-path="url(#a65048bdc7)"><path fill="#f0edee" d="M 152.347656 224.332031 L 152.347656 172.851562 L 199.25 172.851562 L 199.25 224.332031 Z M 152.347656 224.332031 " fill-opacity="1" fill-rule="nonzero"/></g></g><g clip-path="url(#3f73825dd4)"><path fill="#272635" d="M 74.789062 120.21875 L 98.832031 120.21875 L 98.832031 144.265625 L 74.789062 144.265625 Z M 74.789062 120.21875 " fill-opacity="1" fill-rule="nonzero"/></g><g clip-path="url(#ee2a5b8461)"><path fill="#272635" d="M 282.570312 254.464844 L 306.617188 254.464844 L 306.617188 278.511719 L 282.570312 278.511719 Z M 282.570312 254.464844 " fill-opacity="1" fill-rule="nonzero"/></g><g clip-path="url(#d257f1c766)"><path fill="#272635" d="M 251.699219 286.960938 L 265.050781 286.960938 L 265.050781 300.308594 L 251.699219 300.308594 Z M 251.699219 286.960938 " fill-opacity="1" fill-rule="nonzero"/></g><g clip-path="url(#77579a6ee2)"><path fill="#f0edee" d="M 240.804688 58.699219 L 294.59375 58.699219 L 294.59375 112.488281 L 240.804688 112.488281 Z M 240.804688 58.699219 " fill-opacity="1" fill-rule="nonzero"/></g><g clip-path="url(#96633a06af)"><path fill="#f0edee" d="M 37.632812 60.144531 L 63.082031 60.144531 L 63.082031 85.59375 L 37.632812 85.59375 Z M 37.632812 60.144531 " fill-opacity="1" fill-rule="nonzero"/></g><g clip-path="url(#1f0c531705)"><path fill="#f0edee" d="M 20.847656 116.355469 L 46.300781 116.355469 L 46.300781 141.804688 L 20.847656 141.804688 Z M 20.847656 116.355469 " fill-opacity="1" fill-rule="nonzero"/></g><g clip-path="url(#fd349f25dc)"><path fill="#f0edee" d="M 14.484375 52.335938 L 27.210938 52.335938 L 27.210938 65.0625 L 14.484375 65.0625 Z M 14.484375 52.335938 " fill-opacity="1" fill-rule="nonzero"/></g><g clip-path="url(#b041e75f24)"><path fill="#f0edee" d="M 17.144531 90.105469 L 33.574219 90.105469 L 33.574219 106.535156 L 17.144531 106.535156 Z M 17.144531 90.105469 " fill-opacity="1" fill-rule="nonzero"/></g><g clip-path="url(#389f18f8cd)"><path fill="#f0edee" d="M 313.582031 268.183594 L 339.03125 268.183594 L 339.03125 293.636719 L 313.582031 293.636719 Z M 313.582031 268.183594 " fill-opacity="1" fill-rule="nonzero"/></g><g clip-path="url(#098beebabc)"><path fill="#f0edee" d="M 344.050781 288.9375 L 360.515625 288.9375 L 360.515625 305.402344 L 344.050781 305.402344 Z M 344.050781 288.9375 " fill-opacity="1" fill-rule="nonzero"/></g><g clip-path="url(#6c26811e37)"><path fill="#f0edee" d="M 346.070312 254.464844 L 358.09375 254.464844 L 358.09375 266.488281 L 346.070312 266.488281 Z M 346.070312 254.464844 " fill-opacity="1" fill-rule="nonzero"/></g></svg>