<svg xmlns="http://www.w3.org/2000/svg" xmlns:xlink="http://www.w3.org/1999/xlink" width="500" zoomAndPan="magnify" viewBox="0 0 375 374.999991" height="500" preserveAspectRatio="xMidYMid meet" version="1.0"><defs><clipPath id="7184c78261"><path d="M 58.894531 104.972656 L 112.683594 104.972656 L 112.683594 266.113281 L 58.894531 266.113281 Z M 58.894531 104.972656 " clip-rule="nonzero"/></clipPath><clipPath id="af92711bd1"><path d="M 85.773438 78.074219 L 221.375 78.074219 L 221.375 131.867188 L 85.773438 131.867188 Z M 85.773438 78.074219 " clip-rule="nonzero"/></clipPath><clipPath id="aed964600e"><path d="M 152.351562 131.867188 L 300.445312 131.867188 L 300.445312 323 L 152.351562 323 Z M 152.351562 131.867188 " clip-rule="nonzero"/></clipPath><clipPath id="8f225a02f5"><path d="M 112.683594 131.007812 L 235.078125 131.007812 L 235.078125 265.355469 L 112.683594 265.355469 Z M 112.683594 131.007812 " clip-rule="nonzero"/></clipPath><clipPath id="6f014b2b4b"><path d="M 231.203125 220.582031 C 233.542969 213.699219 235.078125 205.875 235.078125 198.195312 C 235.078125 190.515625 233.761719 183.125 231.421875 176.316406 C 231.347656 176.171875 231.347656 176.027344 231.273438 175.882812 C 221.914062 150.308594 197.191406 131.472656 169.25 131.109375 L 112.683594 131.109375 L 112.683594 265.355469 L 169.210938 265.355469 C 197.335938 264.992188 222.058594 246.445312 231.203125 220.582031 Z M 231.203125 220.582031 " clip-rule="nonzero"/></clipPath><clipPath id="404df1db91"><path d="M 152.347656 172.476562 L 199.25 172.476562 L 199.25 223.957031 L 152.347656 223.957031 Z M 152.347656 172.476562 " clip-rule="nonzero"/></clipPath><clipPath id="62362c0574"><path d="M 197.761719 206.800781 C 198.660156 204.164062 199.25 201.164062 199.25 198.222656 C 199.25 195.277344 198.742188 192.445312 197.847656 189.835938 C 197.820312 189.78125 197.820312 189.726562 197.789062 189.671875 C 194.203125 179.871094 184.730469 172.652344 174.023438 172.515625 L 152.347656 172.515625 L 152.347656 223.957031 L 174.007812 223.957031 C 184.785156 223.816406 194.257812 216.710938 197.761719 206.800781 Z M 197.761719 206.800781 " clip-rule="nonzero"/></clipPath><clipPath id="4c6839788f"><path d="M 74.789062 119.84375 L 98.832031 119.84375 L 98.832031 143.890625 L 74.789062 143.890625 Z M 74.789062 119.84375 " clip-rule="nonzero"/></clipPath><clipPath id="c9f13baa73"><path d="M 282.570312 254.089844 L 306.617188 254.089844 L 306.617188 278.136719 L 282.570312 278.136719 Z M 282.570312 254.089844 " clip-rule="nonzero"/></clipPath><clipPath id="7a3e50cdc1"><path d="M 251.699219 286.585938 L 265.050781 286.585938 L 265.050781 299.933594 L 251.699219 299.933594 Z M 251.699219 286.585938 " clip-rule="nonzero"/></clipPath><clipPath id="62c22172cb"><path d="M 240.804688 58.324219 L 294.59375 58.324219 L 294.59375 112.113281 L 240.804688 112.113281 Z M 240.804688 58.324219 " clip-rule="nonzero"/></clipPath><clipPath id="b27a336126"><path d="M 37.632812 59.769531 L 63.082031 59.769531 L 63.082031 85.21875 L 37.632812 85.21875 Z M 37.632812 59.769531 " clip-rule="nonzero"/></clipPath><clipPath id="7211c2836e"><path d="M 20.847656 115.980469 L 46.300781 115.980469 L 46.300781 141.429688 L 20.847656 141.429688 Z M 20.847656 115.980469 " clip-rule="nonzero"/></clipPath><clipPath id="e9159bc279"><path d="M 14.484375 51.960938 L 27.210938 51.960938 L 27.210938 64.6875 L 14.484375 64.6875 Z M 14.484375 51.960938 " clip-rule="nonzero"/></clipPath><clipPath id="6030109984"><path d="M 17.144531 89.730469 L 33.574219 89.730469 L 33.574219 106.160156 L 17.144531 106.160156 Z M 17.144531 89.730469 " clip-rule="nonzero"/></clipPath><clipPath id="fec75f5d0b"><path d="M 313.582031 267.808594 L 339.03125 267.808594 L 339.03125 293.261719 L 313.582031 293.261719 Z M 313.582031 267.808594 " clip-rule="nonzero"/></clipPath><clipPath id="3bad38e00c"><path d="M 344.050781 288.5625 L 360.515625 288.5625 L 360.515625 305.027344 L 344.050781 305.027344 Z M 344.050781 288.5625 " clip-rule="nonzero"/></clipPath><clipPath id="ed4453efea"><path d="M 346.070312 254.089844 L 358.09375 254.089844 L 358.09375 266.113281 L 346.070312 266.113281 Z M 346.070312 254.089844 " clip-rule="nonzero"/></clipPath></defs><rect x="-37.5" width="450" fill="#ffffff" y="-37.499999" height="449.999989" fill-opacity="1"/><rect x="-37.5" width="450" fill="#f0edee" y="-37.499999" height="449.999989" fill-opacity="1"/><g clip-path="url(#7184c78261)"><path fill="#ffbe0b" d="M 58.894531 104.972656 L 112.683594 104.972656 L 112.683594 266.132812 L 58.894531 266.132812 Z M 58.894531 104.972656 " fill-opacity="1" fill-rule="nonzero"/></g><g clip-path="url(#af92711bd1)"><path fill="#ffbe0b" d="M 221.375 78.074219 L 221.375 131.867188 L 85.847656 131.867188 L 85.847656 78.074219 Z M 221.375 78.074219 " fill-opacity="1" fill-rule="nonzero"/></g><g clip-path="url(#aed964600e)"><path fill="#5e1bb1" d="M 152.351562 131.867188 L 300.445312 131.867188 L 300.445312 322.769531 L 152.351562 322.769531 Z M 152.351562 131.867188 " fill-opacity="1" fill-rule="nonzero"/></g><g clip-path="url(#8f225a02f5)"><g clip-path="url(#6f014b2b4b)"><path fill="#f0edee" d="M 112.683594 265.355469 L 112.683594 131.007812 L 235.078125 131.007812 L 235.078125 265.355469 Z M 112.683594 265.355469 " fill-opacity="1" fill-rule="nonzero"/></g></g><g clip-path="url(#404df1db91)"><g clip-path="url(#62362c0574)"><path fill="#5e1bb1" d="M 152.347656 223.957031 L 152.347656 172.476562 L 199.25 172.476562 L 199.25 223.957031 Z M 152.347656 223.957031 " fill-opacity="1" fill-rule="nonzero"/></g></g><g clip-path="url(#4c6839788f)"><path fill="#f0edee" d="M 74.789062 119.84375 L 98.832031 119.84375 L 98.832031 143.890625 L 74.789062 143.890625 Z M 74.789062 119.84375 " fill-opacity="1" fill-rule="nonzero"/></g><g clip-path="url(#c9f13baa73)"><path fill="#f0edee" d="M 282.570312 254.089844 L 306.617188 254.089844 L 306.617188 278.136719 L 282.570312 278.136719 Z M 282.570312 254.089844 " fill-opacity="1" fill-rule="nonzero"/></g><g clip-path="url(#7a3e50cdc1)"><path fill="#f0edee" d="M 251.699219 286.585938 L 265.050781 286.585938 L 265.050781 299.933594 L 251.699219 299.933594 Z M 251.699219 286.585938 " fill-opacity="1" fill-rule="nonzero"/></g><g clip-path="url(#62c22172cb)"><path fill="#5e1bb1" d="M 240.804688 58.324219 L 294.59375 58.324219 L 294.59375 112.113281 L 240.804688 112.113281 Z M 240.804688 58.324219 " fill-opacity="1" fill-rule="nonzero"/></g><g clip-path="url(#b27a336126)"><path fill="#ffbe0b" d="M 37.632812 59.769531 L 63.082031 59.769531 L 63.082031 85.21875 L 37.632812 85.21875 Z M 37.632812 59.769531 " fill-opacity="1" fill-rule="nonzero"/></g><g clip-path="url(#7211c2836e)"><path fill="#ffbe0b" d="M 20.847656 115.980469 L 46.300781 115.980469 L 46.300781 141.429688 L 20.847656 141.429688 Z M 20.847656 115.980469 " fill-opacity="1" fill-rule="nonzero"/></g><g clip-path="url(#e9159bc279)"><path fill="#ffbe0b" d="M 14.484375 51.960938 L 27.210938 51.960938 L 27.210938 64.6875 L 14.484375 64.6875 Z M 14.484375 51.960938 " fill-opacity="1" fill-rule="nonzero"/></g><g clip-path="url(#6030109984)"><path fill="#5e1bb1" d="M 17.144531 89.730469 L 33.574219 89.730469 L 33.574219 106.160156 L 17.144531 106.160156 Z M 17.144531 89.730469 " fill-opacity="1" fill-rule="nonzero"/></g><g clip-path="url(#fec75f5d0b)"><path fill="#5e1bb1" d="M 313.582031 267.808594 L 339.03125 267.808594 L 339.03125 293.261719 L 313.582031 293.261719 Z M 313.582031 267.808594 " fill-opacity="1" fill-rule="nonzero"/></g><g clip-path="url(#3bad38e00c)"><path fill="#ffbe0b" d="M 344.050781 288.5625 L 360.515625 288.5625 L 360.515625 305.027344 L 344.050781 305.027344 Z M 344.050781 288.5625 " fill-opacity="1" fill-rule="nonzero"/></g><g clip-path="url(#ed4453efea)"><path fill="#5e1bb1" d="M 346.070312 254.089844 L 358.09375 254.089844 L 358.09375 266.113281 L 346.070312 266.113281 Z M 346.070312 254.089844 " fill-opacity="1" fill-rule="nonzero"/></g></svg>